<svg width="14" height="17" viewBox="0 0 14 17" fill="none" xmlns="http://www.w3.org/2000/svg">
<path d="M13 4.75V12.25C13 15.25 12.25 16 9.25 16H4.75C1.75 16 1 15.25 1 12.25V4.75C1 1.75 1.75 1 4.75 1H9.25C12.25 1 13 1.75 13 4.75Z" stroke="#222F5D" stroke-width="1.125" stroke-linecap="round" stroke-linejoin="round"/>
<path d="M8.5 3.625H5.5" stroke="#222F5D" stroke-width="1.125" stroke-linecap="round" stroke-linejoin="round"/>
<path d="M6.99984 13.825C7.64187 13.825 8.16234 13.3045 8.16234 12.6625C8.16234 12.0205 7.64187 11.5 6.99984 11.5C6.35781 11.5 5.83734 12.0205 5.83734 12.6625C5.83734 13.3045 6.35781 13.825 6.99984 13.825Z" stroke="#222F5D" stroke-width="1.125" stroke-linecap="round" stroke-linejoin="round"/>
</svg>
